<?xml version="1.0" encoding="iso-8859-1"?>
<!-- Generator: Adobe Illustrator 19.0.0, SVG Export Plug-In . SVG Version: 6.00 Build 0)  -->
<svg version="1.1" id="Layer_1" xmlns="http://www.w3.org/2000/svg" xmlns:xlink="http://www.w3.org/1999/xlink" x="0px" y="0px"
	 viewBox="0 0 512 512" style="enable-background:new 0 0 512 512;" xml:space="preserve">
<path style="fill:#C1272D;" d="M460.751,501.801H51.249V214.949c0-113.081,91.67-204.75,204.751-204.75l0,0
	c113.081,0,204.75,91.669,204.75,204.75v286.852H460.751z"/>
<g>
	<path style="fill:#333333;" d="M158.127,323.315L158.127,323.315c-31.308,0-58.696-21.07-66.725-51.331L60.914,157.068
		l114.916,30.487c30.261,8.029,51.331,35.417,51.331,66.725l0,0C227.161,292.407,196.254,323.315,158.127,323.315z"/>
	<path style="fill:#333333;" d="M353.873,323.315L353.873,323.315c31.308,0,58.696-21.07,66.725-51.331l30.488-114.916
		L336.17,187.555c-30.261,8.029-51.331,35.417-51.331,66.725l0,0C284.839,292.407,315.746,323.315,353.873,323.315z"/>
</g>
<path style="fill:#FBB03B;" d="M146.869,501.801c0-60.271,48.86-109.131,109.131-109.131s109.131,48.86,109.131,109.131H146.869z"/>
<path d="M460.75,512c5.633,0,10.199-4.567,10.199-10.199V214.949C470.949,96.426,374.524,0,256,0S41.051,96.426,41.051,214.949
	v286.852c0,5.632,4.566,10.199,10.199,10.199H460.75z M157.59,491.602c5.121-49.778,47.302-88.733,98.41-88.733
	s93.29,38.955,98.41,88.733H157.59z M223.052,387.1c5.39-12.888,18.127-21.968,32.948-21.968s27.557,9.08,32.948,21.968
	c-10.47-3.012-21.522-4.629-32.948-4.629S233.522,384.088,223.052,387.1z M450.551,491.602H374.89
	c-3.512-41.281-28.125-76.633-62.985-95.198c-2.266-28.868-26.465-51.67-55.905-51.67s-53.639,22.802-55.905,51.67
	c-34.86,18.566-59.475,53.917-62.985,95.198H61.449V214.949c0-4.757,0.18-9.472,0.517-14.144l19.577,73.794
	c9.204,34.688,40.696,58.915,76.584,58.915c43.689,0,79.234-35.544,79.234-79.234c0-35.888-24.226-67.379-58.915-76.584
	L72.735,149.651C99.628,74.399,171.621,20.398,256,20.398s156.372,54.001,183.265,129.252l-105.711,28.047
	c-34.689,9.204-58.915,40.696-58.915,76.584c0,43.689,35.544,79.234,79.234,79.234c35.888,0,67.38-24.226,76.584-58.915
	l19.577-73.794c0.338,4.672,0.517,9.387,0.517,14.144L450.551,491.602L450.551,491.602z M75.277,171.43l97.938,25.985
	c25.758,6.833,43.747,30.218,43.747,56.867c0,32.442-26.392,58.835-58.835,58.835c-26.648,0-50.033-17.989-56.868-43.747
	L75.277,171.43z M436.723,171.43l-25.984,97.938c-6.833,25.758-30.218,43.747-56.867,43.747c-32.442,0-58.835-26.393-58.835-58.835
	c0-26.648,17.989-50.033,43.747-56.867L436.723,171.43z"/>
<path d="M276.398,435.506h-40.797c-5.633,0-10.199,4.567-10.199,10.199c0,5.632,4.566,10.199,10.199,10.199h40.797
	c5.633,0,10.199-4.567,10.199-10.199C286.598,440.073,282.031,435.506,276.398,435.506z"/>
<path d="M189.079,46.12c-39.703,15.391-73.176,44.31-94.253,81.435c-2.781,4.899-1.064,11.124,3.834,13.906
	c1.59,0.903,3.32,1.332,5.026,1.332c3.55,0,7.001-1.857,8.879-5.165c18.762-33.047,48.553-58.791,83.886-72.486
	c5.252-2.036,7.859-7.944,5.824-13.196S194.332,44.086,189.079,46.12z"/>
<path d="M256,33.657c-9.5,0-19.039,0.726-28.354,2.158c-5.568,0.856-9.387,6.062-8.531,11.63c0.775,5.042,5.119,8.65,10.069,8.65
	c0.515,0,1.037-0.039,1.563-0.119c8.291-1.274,16.788-1.921,25.253-1.921c5.633,0,10.199-4.567,10.199-10.199
	S261.633,33.657,256,33.657z"/>
<g>
</g>
<g>
</g>
<g>
</g>
<g>
</g>
<g>
</g>
<g>
</g>
<g>
</g>
<g>
</g>
<g>
</g>
<g>
</g>
<g>
</g>
<g>
</g>
<g>
</g>
<g>
</g>
<g>
</g>
</svg>
