<?xml version="1.0" encoding="iso-8859-1"?>
<!-- Generator: Adobe Illustrator 19.0.0, SVG Export Plug-In . SVG Version: 6.00 Build 0)  -->
<svg version="1.1" id="Layer_1" xmlns="http://www.w3.org/2000/svg" xmlns:xlink="http://www.w3.org/1999/xlink" x="0px" y="0px"
	 viewBox="0 0 512 512" style="enable-background:new 0 0 512 512;" xml:space="preserve">
<path style="fill:#A67C52;" d="M10.199,382.216c0-135.752,110.048-245.801,245.801-245.801s245.801,110.048,245.801,245.801H10.199z
	"/>
<g>
	<circle style="fill:#006837;" cx="102.298" cy="233.103" r="37.43"/>
	<circle style="fill:#006837;" cx="408.682" cy="233.103" r="37.43"/>
	<circle style="fill:#006837;" cx="310.362" cy="171.296" r="37.43"/>
	<circle style="fill:#006837;" cx="201.638" cy="171.296" r="37.43"/>
</g>
<g>
	<circle style="fill:#C1272D;" cx="255.98" cy="167.216" r="37.43"/>
	<circle style="fill:#C1272D;" cx="146.644" cy="190.858" r="37.43"/>
	<circle style="fill:#C1272D;" cx="365.315" cy="190.858" r="37.43"/>
</g>
<path style="fill:#FBB03B;" d="M10.199,382.216c0-97.591,110.048-176.704,245.801-176.704s245.801,79.113,245.801,176.704H10.199z"
	/>
<path d="M454.883,221.016c-0.061-0.074-0.129-0.14-0.192-0.213c-4.275-16.007-16.713-28.74-32.625-33.398
	c-3.462-2.953-7.031-5.84-10.677-8.628c-5.407-20.837-24.151-35.552-46.074-35.552c-4.38,0-8.7,0.601-12.894,1.785
	c-1.066-0.431-2.151-0.864-3.266-1.297c-8.876-12.444-23.411-20.048-38.794-20.048c-7.205,0-14.304,1.652-20.752,4.778
	c-2.395-0.314-4.8-0.596-7.222-0.843c-7.563-5.058-16.645-8.015-26.407-8.015c-9.764,0-18.849,2.958-26.413,8.019
	c-2.406,0.247-4.798,0.526-7.18,0.839c-6.448-3.126-13.548-4.777-20.752-4.777c-15.382,0-29.915,7.602-38.792,20.047
	c-1.118,0.436-2.208,0.87-3.282,1.304c-4.2-1.188-8.528-1.791-12.914-1.791c-21.941,0-40.687,14.729-46.083,35.584
	c-3.482,2.662-6.876,5.4-10.155,8.182c-17.216,4.435-30.65,18.28-34.56,35.621C19.826,267.744,0,324.333,0,382.216
	c0,5.632,4.567,10.199,10.199,10.199h491.602c5.632,0,10.199-4.567,10.199-10.199C512,323.652,491.716,266.404,454.883,221.016z
	 M452.366,252.028c4.828,7.289,9.235,14.835,13.21,22.592c-5.228-5.41-10.869-10.642-16.923-15.669
	C450.079,256.744,451.324,254.431,452.366,252.028z M435.339,227.526c0,0.002,0.001,0.004,0.001,0.006
	c0.379,1.825,0.571,3.699,0.571,5.572c0,4.829-1.237,9.434-3.562,13.487c-10.987-7.617-22.746-14.449-35.158-20.446
	c6.023-5.458,10.651-12.411,13.28-20.204c1.482,0.099,2.954,0.313,4.417,0.655c0.001,0,0.002,0,0.003,0
	C425.169,208.99,433.195,217.207,435.339,227.526z M392.161,186.311c0,0.001,0,0.003,0,0.004c0.255,1.522,0.385,3.049,0.385,4.539
	c0,1.282-0.096,2.598-0.285,3.91c0,0.003,0,0.005-0.001,0.008c-1.422,9.895-8.366,18.258-17.655,21.648
	c-10.243-3.906-20.831-7.291-31.7-10.139c-1.383-2.001-2.499-4.159-3.3-6.46c0-0.001,0-0.002-0.001-0.004
	c-1.007-2.889-1.518-5.905-1.518-8.964c0-9.519,4.849-18.19,12.969-23.198c0.001-0.001,0.003-0.001,0.005-0.002
	c1.405-0.867,2.948-1.623,4.58-2.245c0.001,0,0.003-0.001,0.004-0.001c3.109-1.184,6.362-1.785,9.672-1.785
	C378.67,163.624,389.958,173.166,392.161,186.311z M332.863,155.983c-9.629,8.914-15.175,21.405-15.175,34.872
	c0,3.401,0.364,6.771,1.08,10.074c-8.488-1.55-17.109-2.786-25.838-3.699c6.672-8.198,10.683-18.645,10.683-30.015
	c0-7.378-1.687-14.37-4.695-20.611c3.573-1.658,7.479-2.541,11.447-2.541C319.483,144.064,327.777,148.494,332.863,155.983z
	 M283.214,167.214c0,15.015-12.217,27.231-27.231,27.231s-27.23-12.217-27.23-27.231c0-15.014,12.216-27.23,27.23-27.23
	C270.997,139.985,283.214,152.2,283.214,167.214z M201.636,144.064c3.956,0,7.852,0.877,11.418,2.527
	c-3.012,6.244-4.701,13.24-4.701,20.623c0,11.371,4.01,21.82,10.685,30.018c-8.731,0.914-17.354,2.151-25.843,3.702
	c0.716-3.305,1.081-6.677,1.081-10.081c0-13.454-5.538-25.938-15.153-34.851C184.208,148.502,192.51,144.064,201.636,144.064z
	 M146.648,163.624c3.314,0,6.57,0.603,9.682,1.789c1.641,0.626,3.188,1.385,4.596,2.256c0.001,0,0.002,0.001,0.002,0.001
	c8.108,5.008,12.95,13.675,12.95,23.185c0,3.055-0.509,6.064-1.513,8.949c0,0.001-0.001,0.002-0.001,0.004
	c-0.804,2.311-1.924,4.478-3.313,6.487c-10.853,2.845-21.423,6.226-31.651,10.125c-9.266-3.368-16.221-11.68-17.682-21.52
	c0-0.002-0.001-0.003-0.001-0.005c-0.199-1.342-0.299-2.701-0.299-4.039c0-1.484,0.129-3.002,0.38-4.513
	c0-0.002,0.001-0.004,0.001-0.005C121.993,173.176,133.284,163.624,146.648,163.624z M97.068,206.382
	c1.454-0.281,2.917-0.439,4.379-0.484c2.607,7.9,7.198,14.864,13.24,20.308c-12.632,6.111-24.586,13.09-35.738,20.879
	c-2.507-4.189-3.88-9.015-3.88-13.98c0-1.447,0.121-2.927,0.36-4.398c0-0.003,0.001-0.005,0.002-0.008
	C77.246,217.511,85.942,208.543,97.068,206.382z M59.022,252.944c1.044,2.276,2.267,4.47,3.66,6.561
	c-5.802,4.858-11.221,9.904-16.258,15.115C50.232,267.188,54.429,259.948,59.022,252.944z M20.836,372.016
	c3.382-39.376,26.219-75.1,61.785-102.424c0.54-0.334,1.055-0.715,1.535-1.158c16.529-12.46,35.73-23.128,56.953-31.541
	c0.367-0.122,0.725-0.267,1.075-0.43c11.084-4.34,22.715-8.066,34.796-11.114c0.279-0.057,0.556-0.134,0.83-0.214
	c24.477-6.103,50.794-9.425,78.189-9.425c27.354,0,53.636,3.312,78.081,9.398c0.298,0.09,0.597,0.17,0.9,0.233
	c12.099,3.052,23.747,6.781,34.847,11.128c0.35,0.163,0.709,0.308,1.077,0.43c21.02,8.334,40.054,18.879,56.474,31.187
	c0.439,0.394,0.906,0.737,1.392,1.042c35.913,27.384,58.992,63.288,62.394,102.888H20.836V372.016z"/>
<path d="M446.048,351.108c0,5.632,4.567,10.199,10.199,10.199h6.797c5.632,0,10.199-4.567,10.199-10.199
	c0-5.632-4.567-10.199-10.199-10.199h-6.797C450.614,340.909,446.048,345.476,446.048,351.108z"/>
<path d="M414.337,340.909h-123.68c-5.632,0-10.199,4.567-10.199,10.199c0,5.632,4.567,10.199,10.199,10.199h123.68
	c5.632,0,10.199-4.567,10.199-10.199C424.536,345.476,419.97,340.909,414.337,340.909z"/>
<path d="M232.213,256.479h-18.124c-5.632,0-10.199,4.567-10.199,10.199c0,5.632,4.567,10.199,10.199,10.199h18.124
	c5.632,0,10.199-4.567,10.199-10.199C242.413,261.046,237.845,256.479,232.213,256.479z"/>
<path d="M123.472,325.575H101.95c-5.632,0-10.199,4.567-10.199,10.199c0,5.632,4.567,10.199,10.199,10.199h21.521
	c5.632,0,10.199-4.567,10.199-10.199C133.671,330.143,129.104,325.575,123.472,325.575z"/>
<g>
</g>
<g>
</g>
<g>
</g>
<g>
</g>
<g>
</g>
<g>
</g>
<g>
</g>
<g>
</g>
<g>
</g>
<g>
</g>
<g>
</g>
<g>
</g>
<g>
</g>
<g>
</g>
<g>
</g>
</svg>
